{
  "asset": {
    "version": "2.0",
    "generator": "Sketchup glTF Exporter v1.2.6 by Centaur"
  },
  "scene": 0,
  "scenes": [
    {
      "nodes": [
        0
      ]
    }
  ],
  "samplers": [
    {
    }
  ],
  "nodes": [
    {
      "name": "root",
      "children": [
        1
      ]
    },
    {
      "name": "БЕЗОПАСНОСТЬ ЖИЗ",
      "mesh": 0
    }
  ],
  "materials": [
    {
      "pbrMetallicRoughness": {
        "baseColorTexture": {
          "index": 0
        },
        "metallicFactor": 0.1,
        "roughnessFactor": 0.9
      },
      "name": "Пластик, красный"
    }
  ],
  "images": [
    {
      "bufferView": 0,
      "mimeType": "image/jpeg"
    }
  ],
  "textures": [
    {
      "source": 0,
      "sampler": 0
    }
  ],
  "meshes": [
    {
      "primitives": [
        {
          "attributes": {
            "POSITION": 0,
            "NORMAL": 1,
            "TEXCOORD_0": 2
          },
          "indices": 3,
          "mode": 4,
          "material": 0
        }
      ]
    }
  ],
  "accessors": [
    {
      "bufferView": 1,
      "componentType": 5126,
      "count": 4716,
      "type": "VEC3",
      "min": [
        -2.458616429894997,
        -0.030000000000000002,
        -0.15596046942557182
      ],
      "max": [
        2.4368437306979613,
        1.0408340855860843e-17,
        0.14237183446571974
      ]
    },
    {
      "bufferView": 2,
      "componentType": 5126,
      "count": 4716,
      "type": "VEC3",
      "min": [
        -1.0,
        -1.0,
        -1.0
      ],
      "max": [
        1.0,
        1.0,
        1.0
      ]
    },
    {
      "bufferView": 3,
      "componentType": 5126,
      "count": 4716,
      "type": "VEC2",
      "min": [
        -193.24532009162846,
        -10.745366294932714
      ],
      "max": [
        193.24532009162846,
        1.0
      ]
    },
    {
      "bufferView": 4,
      "componentType": 5123,
      "count": 9192,
      "type": "SCALAR"
    }
  ],
  "bufferViews": [
    {
      "buffer": 0,
      "byteLength": 3824
    },
    {
      "buffer": 0,
      "byteOffset": 3828,
      "byteLength": 56592,
      "target": 34962,
      "byteStride": 12
    },
    {
      "buffer": 0,
      "byteOffset": 60420,
      "byteLength": 56592,
      "target": 34962,
      "byteStride": 12
    },
    {
      "buffer": 0,
      "byteOffset": 117016,
      "byteLength": 37728,
      "target": 34962,
      "byteStride": 8
    },
    {
      "buffer": 0,
      "byteOffset": 154744,
      "byteLength": 18384,
      "target": 34963
    }
  ],
  "buffers": [
    {
      "uri": "data:application/octet-stream;base64,",
      "byteLength": 173128
    }
  ]
}