{
  "asset": {
    "version": "2.0",
    "generator": "Sketchup glTF Exporter v1.2.6 by Centaur"
  },
  "scene": 0,
  "scenes": [
    {
      "nodes": [
        0
      ]
    }
  ],
  "samplers": [
    {
    }
  ],
  "nodes": [
    {
      "name": "root",
      "mesh": 0
    }
  ],
  "materials": [
    {
      "pbrMetallicRoughness": {
        "baseColorTexture": {
          "index": 0
        },
        "metallicFactor": 0.1,
        "roughnessFactor": 0.9
      },
      "name": "Материал1"
    },
    {
      "pbrMetallicRoughness": {
        "baseColorTexture": {
          "index": 1
        },
        "metallicFactor": 0.1,
        "roughnessFactor": 0.9
      },
      "name": "Пластик, красный"
    }
  ],
  "images": [
    {
      "bufferView": 0,
      "mimeType": "image/jpeg"
    },
    {
      "bufferView": 1,
      "mimeType": "image/jpeg"
    }
  ],
  "textures": [
    {
      "source": 0,
      "sampler": 0
    },
    {
      "source": 1,
      "sampler": 0
    }
  ],
  "meshes": [
    {
      "primitives": [
        {
          "attributes": {
            "POSITION": 0,
            "NORMAL": 1,
            "TEXCOORD_0": 2
          },
          "indices": 3,
          "mode": 4,
          "material": 0
        },
        {
          "attributes": {
            "POSITION": 0,
            "NORMAL": 1,
            "TEXCOORD_0": 2
          },
          "indices": 4,
          "mode": 4,
          "material": 1
        }
      ]
    }
  ],
  "accessors": [
    {
      "bufferView": 2,
      "componentType": 5126,
      "count": 28,
      "type": "VEC3",
      "min": [
        -1.9999999999999998,
        -0.1700000000000001,
        -1.0799999999999998
      ],
      "max": [
        1.0799999999999996,
        -0.03909999999999992,
        1.9999999999999996
      ]
    },
    {
      "bufferView": 3,
      "componentType": 5126,
      "count": 28,
      "type": "VEC3",
      "min": [
        -1.0,
        -1.0,
        -1.0
      ],
      "max": [
        1.0,
        1.0,
        1.0
      ]
    },
    {
      "bufferView": 4,
      "componentType": 5126,
      "count": 28,
      "type": "VEC2",
      "min": [
        -7.2287839020122355,
        -2.543307086614171
      ],
      "max": [
        7.2287839020122355,
        7.561679790026244
      ]
    },
    {
      "bufferView": 5,
      "componentType": 5121,
      "count": 30,
      "type": "SCALAR"
    },
    {
      "bufferView": 5,
      "componentType": 5121,
      "count": 30,
      "type": "SCALAR",
      "byteOffset": 30
    }
  ],
  "bufferViews": [
    {
      "buffer": 0,
      "byteLength": 199376
    },
    {
      "buffer": 0,
      "byteOffset": 199376,
      "byteLength": 2752
    },
    {
      "buffer": 0,
      "byteOffset": 202128,
      "byteLength": 336,
      "target": 34962,
      "byteStride": 12
    },
    {
      "buffer": 0,
      "byteOffset": 202464,
      "byteLength": 336,
      "target": 34962,
      "byteStride": 12
    },
    {
      "buffer": 0,
      "byteOffset": 202800,
      "byteLength": 224,
      "target": 34962,
      "byteStride": 8
    },
    {
      "buffer": 0,
      "byteOffset": 203024,
      "byteLength": 60,
      "target": 34963
    }
  ],
  "buffers": [
    {
      "uri": "data:application/octet-stream;base64,",
      "byteLength": 203084
    }
  ]
}